HIERARCHY
ROOT Hips
{
    OFFSET   0.000000   0.000000   0.000000
    CHANNELS 6 Xposition Yposition Zposition Zrotation Xrotation Yrotation
    JOINT Chest
    {
        OFFSET   0.000000   8.007230   0.000000
        CHANNELS 3 Zrotation Xrotation Yrotation
        JOINT Chest2
        {
            OFFSET   0.000000  22.077100   0.000000
            CHANNELS 3 Zrotation Xrotation Yrotation
            JOINT Neck
            {
                OFFSET   0.000000  23.254800  -0.000021
                CHANNELS 3 Zrotation Xrotation Yrotation
                JOINT Head
                {
                    OFFSET   0.000000  14.370000   1.956610
                    CHANNELS 3 Zrotation Xrotation Yrotation
                    End Site
                    {
                        OFFSET   0.000000  19.566000   0.000000
                    }
                }
            }
            JOINT LeftCollar
            {
                OFFSET   3.911900  19.017000  -0.467063
                CHANNELS 3 Zrotation Xrotation Yrotation
                JOINT LeftShoulder
                {
                    OFFSET  10.383700   0.000000   0.000000
                    CHANNELS 3 Zrotation Xrotation Yrotation
                    JOINT LeftElbow
                    {
                        OFFSET  26.662100   0.001529   0.000325
                        CHANNELS 3 Zrotation Xrotation Yrotation
                        JOINT LeftWrist
                        {
                            OFFSET  28.869000  -0.000011  -0.000096
                            CHANNELS 3 Zrotation Xrotation Yrotation
                            JOINT LeftFinger0
                            {
                                OFFSET   2.044650  -2.323460   3.252850
                                CHANNELS 3 Zrotation Xrotation Yrotation
                                JOINT LeftFinger01
                                {
                                    OFFSET   3.088130   0.000000   0.000000
                                    CHANNELS 3 Zrotation Xrotation Yrotation
                                    JOINT LeftFinger02
                                    {
                                        OFFSET   2.639460   0.000000   0.000000
                                        CHANNELS 3 Zrotation Xrotation Yrotation
                                        End Site
                                        {
                                            OFFSET   2.582190   0.000000   0.000000
                                        }
                                    }
                                }
                            }
                            JOINT LeftFinger1
                            {
                                OFFSET   8.364480   0.000000   3.252850
                                CHANNELS 3 Zrotation Xrotation Yrotation
                                JOINT LeftFinger11
                                {
                                    OFFSET   4.646930   0.000000   0.000000
                                    CHANNELS 3 Zrotation Xrotation Yrotation
                                    JOINT LeftFinger12
                                    {
                                        OFFSET   2.323460   0.000000   0.000000
                                        CHANNELS 3 Zrotation Xrotation Yrotation
                                        End Site
                                        {
                                            OFFSET   2.273050   0.000000   0.000000
                                        }
                                    }
                                }
                            }
                            JOINT LeftFinger2
                            {
                                OFFSET   8.364480   0.000016   1.078090
                                CHANNELS 3 Zrotation Xrotation Yrotation
                                JOINT LeftFinger21
                                {
                                    OFFSET   5.111620   0.000000   0.000000
                                    CHANNELS 3 Zrotation Xrotation Yrotation
                                    JOINT LeftFinger22
                                    {
                                        OFFSET   2.788160   0.000017   0.000000
                                        CHANNELS 3 Zrotation Xrotation Yrotation
                                        End Site
                                        {
                                            OFFSET   2.727660   0.000000   0.000000
                                        }
                                    }
                                }
                            }
                            JOINT LeftFinger3
                            {
                                OFFSET   7.899780   0.000015  -1.078090
                                CHANNELS 3 Zrotation Xrotation Yrotation
                                JOINT LeftFinger31
                                {
                                    OFFSET   4.646920   0.000000   0.000000
                                    CHANNELS 3 Zrotation Xrotation Yrotation
                                    JOINT LeftFinger32
                                    {
                                        OFFSET   2.323470   0.000000   0.000000
                                        CHANNELS 3 Zrotation Xrotation Yrotation
                                        End Site
                                        {
                                            OFFSET   2.273050   0.000000   0.000000
                                        }
                                    }
                                }
                            }
                            JOINT LeftFinger4
                            {
                                OFFSET   7.435090   0.000000  -3.252850
                                CHANNELS 3 Zrotation Xrotation Yrotation
                                JOINT LeftFinger41
                                {
                                    OFFSET   3.717550   0.000000   0.000000
                                    CHANNELS 3 Zrotation Xrotation Yrotation
                                    JOINT LeftFinger42
                                    {
                                        OFFSET   1.858760   0.000000   0.000000
                                        CHANNELS 3 Zrotation Xrotation Yrotation
                                        End Site
                                        {
                                            OFFSET   1.818440   0.000000   0.000000
                                        }
                                    }
                                }
                            }
                        }
                    }
                }
            }
            JOINT RightCollar
            {
                OFFSET  -3.911900  19.017000  -0.467062
                CHANNELS 3 Zrotation Xrotation Yrotation
                JOINT RightShoulder
                {
                    OFFSET -10.383700   0.000015   0.000000
                    CHANNELS 3 Zrotation Xrotation Yrotation
                    JOINT RightElbow
                    {
                        OFFSET -26.662100   0.001341   0.000385
                        CHANNELS 3 Zrotation Xrotation Yrotation
                        JOINT RightWrist
                        {
                            OFFSET -28.869000   0.000025  -0.000080
                            CHANNELS 3 Zrotation Xrotation Yrotation
                            JOINT RightFinger0
                            {
                                OFFSET  -2.044650  -2.323490   3.252850
                                CHANNELS 3 Zrotation Xrotation Yrotation
                                JOINT RightFinger01
                                {
                                    OFFSET  -3.088130   0.000000   0.000000
                                    CHANNELS 3 Zrotation Xrotation Yrotation
                                    JOINT RightFinger02
                                    {
                                        OFFSET  -2.639460   0.000000   0.000000
                                        CHANNELS 3 Zrotation Xrotation Yrotation
                                        End Site
                                        {
                                            OFFSET  -2.582190   0.000000   0.000000
                                        }
                                    }
                                }
                            }
                            JOINT RightFinger1
                            {
                                OFFSET  -8.364480   0.000000   3.252850
                                CHANNELS 3 Zrotation Xrotation Yrotation
                                JOINT RightFinger11
                                {
                                    OFFSET  -4.646930   0.000000   0.000000
                                    CHANNELS 3 Zrotation Xrotation Yrotation
                                    JOINT RightFinger12
                                    {
                                        OFFSET  -2.323470   0.000000   0.000000
                                        CHANNELS 3 Zrotation Xrotation Yrotation
                                        End Site
                                        {
                                            OFFSET  -2.273050   0.000000   0.000000
                                        }
                                    }
                                }
                            }
                            JOINT RightFinger2
                            {
                                OFFSET  -8.364480   0.000000   1.078090
                                CHANNELS 3 Zrotation Xrotation Yrotation
                                JOINT RightFinger21
                                {
                                    OFFSET  -5.111610   0.000000   0.000000
                                    CHANNELS 3 Zrotation Xrotation Yrotation
                                    JOINT RightFinger22
                                    {
                                        OFFSET  -2.788160   0.000000   0.000000
                                        CHANNELS 3 Zrotation Xrotation Yrotation
                                        End Site
                                        {
                                            OFFSET  -2.727660   0.000000   0.000000
                                        }
                                    }
                                }
                            }
                            JOINT RightFinger3
                            {
                                OFFSET  -7.899780   0.000000  -1.078090
                                CHANNELS 3 Zrotation Xrotation Yrotation
                                JOINT RightFinger31
                                {
                                    OFFSET  -4.646920   0.000000   0.000000
                                    CHANNELS 3 Zrotation Xrotation Yrotation
                                    JOINT RightFinger32
                                    {
                                        OFFSET  -2.323470   0.000000   0.000000
                                        CHANNELS 3 Zrotation Xrotation Yrotation
                                        End Site
                                        {
                                            OFFSET  -2.273050   0.000000   0.000000
                                        }
                                    }
                                }
                            }
                            JOINT RightFinger4
                            {
                                OFFSET  -7.435090   0.000000  -3.252850
                                CHANNELS 3 Zrotation Xrotation Yrotation
                                JOINT RightFinger41
                                {
                                    OFFSET  -3.717550   0.000000   0.000000
                                    CHANNELS 3 Zrotation Xrotation Yrotation
                                    JOINT RightFinger42
                                    {
                                        OFFSET  -1.858770   0.000000   0.000000
                                        CHANNELS 3 Zrotation Xrotation Yrotation
                                        End Site
                                        {
                                            OFFSET  -1.818440   0.000000   0.000000
                                        }
                                    }
                                }
                            }
                        }
                    }
                }
            }
        }
    }
    JOINT LeftHip
    {
        OFFSET   9.783010   0.000000   0.000000
        CHANNELS 3 Zrotation Xrotation Yrotation
        JOINT LeftKnee
        {
            OFFSET   0.000070 -41.789100   0.000028
            CHANNELS 3 Zrotation Xrotation Yrotation
            JOINT LeftAnkle
            {
                OFFSET   0.000087 -41.133200  -0.000100
                CHANNELS 3 Zrotation Xrotation Yrotation
                JOINT LeftToe
                {
                    OFFSET   0.000000  -6.358960  14.674500
                    CHANNELS 3 Zrotation Xrotation Yrotation
                    End Site
                    {
                        OFFSET   0.000000   0.000000   3.913200
                    }
                }
            }
        }
    }
    JOINT RightHip
    {
        OFFSET  -9.783020   0.000000   0.000000
        CHANNELS 3 Zrotation Xrotation Yrotation
        JOINT RightKnee
        {
            OFFSET   0.000044 -41.789100  -0.000870
            CHANNELS 3 Zrotation Xrotation Yrotation
            JOINT RightAnkle
            {
                OFFSET  -0.000090 -41.133200  -0.000245
                CHANNELS 3 Zrotation Xrotation Yrotation
                JOINT RightToe
                {
                    OFFSET   0.000000  -6.358960  14.674500
                    CHANNELS 3 Zrotation Xrotation Yrotation
                    End Site
                    {
                        OFFSET   0.000000   0.000000   3.913200
                    }
                }
            }
        }
    }
}
MOTION
Frames: 4
Frame Time:   0.016667
  0.673544  90.088000   0.053995  -0.885926  -3.332060  -3.953110  -0.406823   4.051390  -0.250805  -0.798826   8.104440  -0.474457   0.741425  -1.798940   0.016476   1.232710  -3.646480   9.192600  -7.776700  -3.042870   7.323390 -69.617400  16.818200  -2.329520  -3.956340  -7.040370 -16.553200  13.026800   0.843310   7.412900  50.376100  40.430600 -81.704400 -20.136300   0.008338   0.003125  -5.060510   0.000168   0.000919 -29.191600   4.656460  -8.267610 -24.159500   0.001837   0.002700 -16.911700   0.001271   0.004936 -28.627200   0.726681  -1.331290 -37.853400  -0.007073  -0.003786 -25.210400   0.003523  -0.002505 -27.423800   0.698845  -1.346120 -28.912000   0.000127   0.001586 -19.255400   0.003216  -0.011526 -28.227000  -1.424790   2.652030 -42.390000  -0.000131   0.001228 -28.231700   0.000862   0.000786  11.006500   2.131820   9.604740  66.559000  10.194000   0.451084   1.904610  -7.023020  16.348000 -13.428700 -16.081400   1.988210 -38.659800  36.742600  73.376600  32.476600   0.014358  -0.009035  11.238300   0.003899  -0.002825  29.325700   1.152790   2.051160  24.009800   0.000706  -0.003954  16.805500   0.009899  -0.003831  26.885700  -1.207790  -2.381030  26.900800  -0.003173   0.003663  17.932200   0.006171   0.005689  27.318200  -2.970970  -5.729760  29.045400  -0.001100  -0.000511  19.351100   0.000461   0.001697  34.461200  -3.661340  -5.316050  51.946900   0.000921   0.000435  34.596600   0.005584   0.007321  -0.185705   5.126830   2.549330   0.356432   0.688052   9.837170  -4.013120  -4.026290   5.416810   0.000000   0.000000   0.000000   2.019720   4.990820  -7.827470   0.256571   1.550220  -6.302400 -11.159600   0.475441   2.137360  -0.000000   0.000000   0.000000
  0.677435  90.088000   0.060076  -0.886469  -3.343360  -3.952880  -0.406936   4.051210  -0.248823  -0.799287   8.104050  -0.470449   0.741655  -1.782380   0.016483   1.230770  -3.612730   9.192260  -7.781030  -3.042860   7.327100 -69.624500  16.801300  -2.329300  -3.947480  -7.017900 -16.536400  13.018000   0.873874   7.391130  50.402900  40.443400 -81.719600 -20.129800   0.008347   0.003098  -5.060660   0.000174   0.000916 -29.178900   4.666220  -8.288910 -24.150400   0.001834   0.002692 -16.905300   0.001264   0.004928 -28.626700   0.741094  -1.357780 -37.847600  -0.007080  -0.003775 -25.206500   0.003521  -0.002500 -27.423600   0.712660  -1.372930 -28.900700   0.000120   0.001590 -19.247900   0.003211  -0.011533 -28.221500  -1.417190   2.638530 -42.381200  -0.000132   0.001229 -28.225800   0.000859   0.000786  11.007200   2.129430   9.604730  66.563700  10.199900   0.462270   1.904010  -7.025260  16.348100 -13.431300 -16.075600   1.988410 -38.661800  36.746800  73.393000  32.456300   0.014363  -0.009043  11.228200   0.003909  -0.002798  29.324600   1.166970   2.076390  24.009800   0.000694  -0.003951  16.805000   0.009902  -0.003827  26.883100  -1.199260  -2.364310  26.900100  -0.003190   0.003669  17.932400   0.006164   0.005695  27.320900  -2.957570  -5.703540  29.047800  -0.001086  -0.000531  19.351100   0.000458   0.001656  34.467600  -3.645480  -5.291220  51.954200   0.000916   0.000410  34.601500   0.005596   0.007317  -0.185925   4.681500   2.548550   0.378478   1.148360   9.843520  -4.012390  -4.026740   5.410700   0.000000   0.000000   0.000000   2.022130   5.008160  -7.823530   0.255772   1.545130  -6.307000 -11.159500   0.475765   2.137600  -0.000000   0.000000   0.000000
  0.683544  90.088100   0.070557  -0.887461  -3.361170  -3.952680  -0.407022   4.050950  -0.244916  -0.799643   8.103500  -0.462622   0.741881  -1.750160   0.016501   1.226170  -3.547210   9.191620  -7.787820  -3.042920   7.333070 -69.645100  16.784500  -2.329050  -3.935230  -6.984240 -16.519100  13.004200   0.904441   7.369370  50.433900  40.456100 -81.734900 -20.123400   0.008365   0.003071  -5.061690   0.000180   0.000912 -29.166100   4.675980  -8.310220 -24.141300   0.001826   0.002673 -16.898900   0.001246   0.004904 -28.626100   0.755508  -1.384270 -37.841800  -0.007097  -0.003747 -25.202600   0.003516  -0.002484 -27.425900   0.726473  -1.399730 -28.889400   0.000097   0.001598 -19.240300   0.003202  -0.011549 -28.216000  -1.409600   2.625020 -42.372400  -0.000135   0.001232 -28.220000   0.000849   0.000787  11.010900   2.119400   9.604690  66.578000  10.220900   0.473480   1.899820  -7.040970  16.348700 -13.443300 -16.062000   1.988540 -38.667900  36.739700  73.416400  32.435900   0.014383  -0.009064  11.218000   0.003920  -0.002743  29.323600   1.181140   2.101620  24.009800   0.000666  -0.003939  16.804400   0.009909  -0.003815  26.880600  -1.190740  -2.347580  26.899400  -0.003235   0.003681  17.932700   0.006148   0.005709  27.323600  -2.944180  -5.677330  29.055700  -0.001058  -0.000576  19.351100   0.000452   0.001564  34.481600  -3.629620  -5.266400  51.972800   0.000904   0.000357  34.613900   0.005624   0.007306  -0.186266   4.236180   2.549410   0.400323   1.608640   9.853890  -4.010490  -4.028120   5.401670   0.000000   0.000000  -0.000000   2.025900   5.036940  -7.816740   0.254737   1.537420  -6.313580 -11.159400   0.476089   2.137850   0.000000   0.000000  -0.000000
  0.687408  90.088000   0.079791  -0.888352  -3.372360  -3.953740  -0.405899   4.050830  -0.239865  -0.797711   8.103260  -0.452245   0.741092  -1.714920   0.016528   1.220970  -3.475820   9.191100  -7.792650  -3.043610   7.335260 -69.678900  16.801300  -2.317860  -3.915560  -6.962410 -16.522400  12.996300   0.852781   7.373420  50.295500  40.378300 -81.632400 -20.167600   0.008390   0.003113  -5.084260   0.000172   0.000908 -29.196300   4.662320  -8.277080 -24.165100   0.001814   0.002645 -16.915600   0.001221   0.004863 -28.627400   0.728274  -1.334150 -37.889200  -0.007125  -0.003703 -25.234200   0.003508  -0.002457 -27.438400   0.700455  -1.348980 -28.939400   0.000052   0.001610 -19.273700   0.003199  -0.011570 -28.250300  -1.433420   2.664980 -42.425000  -0.000142   0.001237 -28.255000   0.000834   0.000789  11.027600   2.098770   9.612200  66.603800  10.259500   0.458911   1.881030  -7.095940  16.354700 -13.466200 -16.045100   1.987710 -38.617700  36.674300  73.375700  32.448400   0.014422  -0.009103  11.224200   0.003914  -0.002674  29.328800   1.166900   2.075950  24.013600   0.000628  -0.003917  16.808100   0.009917  -0.003794  26.883300  -1.206900  -2.379070  26.905200  -0.003304   0.003698  17.932800   0.006125   0.005732  27.324700  -2.958010  -5.703510  29.070200  -0.001021  -0.000642  19.358900   0.000443   0.001434  34.499400  -3.647850  -5.289810  52.001700   0.000884   0.000283  34.633100   0.005665   0.007287  -0.188369   4.716170   2.554790   0.378901   1.142200   9.859840  -4.007310  -4.030110   5.396090  -0.000000   0.000000   0.000000   2.028640   5.060730  -7.810670   0.254840   1.532040  -6.316960 -11.159300   0.473448   2.137820  -0.000000   0.000000   0.000000
